HIERARCHY
ROOT Hips
{
	OFFSET -0.001795 -0.223333 0.028219
	CHANNELS 6 Xposition Yposition Zposition Zrotation Yrotation Xrotation 
	JOINT LeftUpLeg
	{
		OFFSET 0.069520 -0.091406 -0.006815
		CHANNELS 3 Zrotation Yrotation Xrotation
		JOINT LeftLeg
		{
			OFFSET 0.034277 -0.375199 -0.004496
			CHANNELS 3 Zrotation Yrotation Xrotation
			JOINT LeftFoot
			{
				OFFSET -0.013596 -0.397961 -0.043693
				CHANNELS 3 Zrotation Yrotation Xrotation
				JOINT LeftToe
				{
					OFFSET 0.026358 -0.055791 0.119288
					CHANNELS 3 Zrotation Yrotation Xrotation
					End Site
					{
						OFFSET 0.000000 0.000000 0.000000
					}
				}
			}
		}
	}
	JOINT RightUpLeg
	{
		OFFSET -0.067670 -0.090522 -0.004320
		CHANNELS 3 Zrotation Yrotation Xrotation
		JOINT RightLeg
		{
			OFFSET -0.038290 -0.382569 -0.008850
			CHANNELS 3 Zrotation Yrotation Xrotation
			JOINT RightFoot
			{
				OFFSET 0.015774 -0.398415 -0.042312
				CHANNELS 3 Zrotation Yrotation Xrotation
				JOINT RightToe
				{
					OFFSET -0.025372 -0.048144 0.123348
					CHANNELS 3 Zrotation Yrotation Xrotation
					End Site
					{
						OFFSET 0.000000 0.000000 0.000000
					}
				}
			}
		}
	}
	JOINT Spine
	{
		OFFSET -0.002533 0.108963 -0.026696
		CHANNELS 3 Zrotation Yrotation Xrotation
		JOINT Spine1
		{
			OFFSET 0.005487 0.135180 0.001092
			CHANNELS 3 Zrotation Yrotation Xrotation
			JOINT Spine2
			{
				OFFSET 0.001457 0.052922 0.025425
				CHANNELS 3 Zrotation Yrotation Xrotation
				JOINT Neck
				{
					OFFSET -0.002778 0.213870 -0.042857
					CHANNELS 3 Zrotation Yrotation Xrotation
					JOINT Head
					{
						OFFSET 0.005152 0.064970 0.051349
						CHANNELS 3 Zrotation Yrotation Xrotation
						End Site
						{
							OFFSET 0.000000 0.000000 0.000000
						}
					}
				}
				JOINT LeftShoulder
				{
					OFFSET 0.078845 0.121749 -0.034090
					CHANNELS 3 Zrotation Yrotation Xrotation
					JOINT LeftArm
					{
						OFFSET 0.090977 0.030469 -0.008868
						CHANNELS 3 Zrotation Yrotation Xrotation
						JOINT LeftForeArm
						{
							OFFSET 0.259612 -0.012772 -0.027456
							CHANNELS 3 Zrotation Yrotation Xrotation
							JOINT LeftHand
							{
								OFFSET 0.249234 0.008986 -0.001171
								CHANNELS 3 Zrotation Yrotation Xrotation
								End Site
								{
									OFFSET 0.000000 0.000000 0.000000
								}
							}
						}
					}
				}
				JOINT RightShoulder
				{
					OFFSET -0.081759 0.118833 -0.038615
					CHANNELS 3 Zrotation Yrotation Xrotation
					JOINT RightArm
					{
						OFFSET -0.096012 0.032551 -0.009143
						CHANNELS 3 Zrotation Yrotation Xrotation
						JOINT RightForeArm
						{
							OFFSET -0.253742 -0.013329 -0.021401
							CHANNELS 3 Zrotation Yrotation Xrotation
							JOINT RightHand
							{
								OFFSET -0.255298 0.007772 -0.005559
								CHANNELS 3 Zrotation Yrotation Xrotation
								End Site
								{
									OFFSET 0.000000 0.000000 0.000000
								}
							}
						}
					}
				}
			}
		}
	}
}
MOTION
Frames: 11
Frame Time: 0.050000
0.000000 0.948287 0.000000 3.275177 -22.829331 7.933530 0.519000 -0.906902 -16.983375 -2.963085 0.489004 1.206125 -1.339915 1.504985 21.933648 0.000000 0.000000 0.000000 -12.029114 1.249787 -5.834609 6.585979 -0.287268 4.934324 -12.056676 -26.603520 10.913088 0.000000 0.000000 0.000000 2.336379 -0.400086 22.254908 8.833684 -2.155812 -19.912271 4.861378 14.870493 27.435313 3.428945 -0.748998 -17.165039 0.000000 0.000000 0.000000 -29.011374 1.294792 -3.341058 -39.588618 -6.762447 -4.478609 -68.879007 -51.205170 40.108176 0.000000 0.000000 0.000000 14.010091 11.977931 5.553285 14.149461 23.115994 -0.919040 -36.645671 29.770244 -8.244975 0.000000 0.000000 0.000000 
0.001371 0.947789 0.000316 3.435899 -23.471847 9.038711 0.606681 -0.894957 -18.023262 -3.329902 0.564543 1.721282 -1.374350 0.960127 19.763627 0.000000 0.000000 0.000000 -11.019684 1.211012 -6.101990 4.998451 -0.182834 3.325391 -12.460961 -27.120926 10.217590 0.000000 0.000000 0.000000 3.293444 -0.590827 22.120112 8.527268 -2.055974 -19.851390 4.937966 16.455234 26.702630 2.956197 -0.244478 -16.591789 0.000000 0.000000 0.000000 -28.619626 2.215146 -4.488158 -38.685090 -6.264465 -4.252866 -73.449255 -48.186776 40.077635 0.000000 0.000000 0.000000 10.356642 12.485823 5.665143 17.031836 24.829369 -0.565852 -40.421578 29.941809 -8.910850 0.000000 0.000000 0.000000 
0.002021 0.948393 0.000835 4.568157 -22.347273 9.177156 -0.493466 -1.138523 -18.763491 -4.031412 0.718017 3.136878 -1.178545 0.873309 16.880653 0.000000 0.000000 0.000000 -12.173516 1.289913 -6.670041 5.336364 -0.217607 3.762471 -13.324520 -28.492848 10.883143 0.000000 0.000000 0.000000 2.985330 -0.597625 20.909270 7.320765 -1.824248 -19.271312 6.072397 15.841580 26.470658 1.858143 0.364706 -15.211480 0.000000 0.000000 0.000000 -28.890576 3.006806 -5.078774 -39.836563 -6.298376 -4.317823 -75.667364 -47.192642 40.820550 0.000000 0.000000 0.000000 10.457840 13.827608 6.266668 15.620552 26.451627 -0.519069 -39.461177 26.880692 -7.676688 0.000000 0.000000 0.000000 
0.002083 0.948097 0.001975 5.092211 -22.793661 9.144165 -0.425825 -1.114887 -18.221319 -4.803533 0.837253 2.119305 -1.547006 0.287668 16.981021 0.000000 0.000000 0.000000 -13.086375 1.385501 -6.786188 5.712466 -0.225464 5.006183 -12.193091 -26.706921 8.242977 0.000000 0.000000 0.000000 2.400483 -0.469121 20.296348 9.003444 -2.303963 -18.362863 5.346930 17.753221 26.448218 1.913977 0.528897 -14.330555 0.000000 0.000000 0.000000 -29.269209 3.092729 -5.923316 -39.595440 -5.854728 -4.263975 -78.165710 -46.904683 41.671955 0.000000 0.000000 0.000000 11.502404 15.075144 7.315096 12.010672 27.176822 -0.924766 -40.313434 27.433123 -8.006765 0.000000 0.000000 0.000000 
0.001457 0.947755 0.003439 5.291278 -22.128834 9.341632 -0.697484 -1.183339 -18.426532 -4.103590 0.690286 1.869971 -2.942725 -1.552337 17.631421 0.000000 0.000000 0.000000 -13.045940 1.363883 -6.640128 5.714411 -0.244458 4.348041 -13.011731 -28.026287 9.128455 0.000000 0.000000 0.000000 3.248806 -0.688320 19.683156 6.691964 -1.829860 -17.590209 6.705249 17.503191 25.702079 1.762271 0.543768 -13.598654 0.000000 0.000000 0.000000 -27.834113 3.600311 -6.018449 -41.334695 -4.949219 -4.631860 -79.218149 -46.133293 41.633693 0.000000 0.000000 0.000000 11.619535 14.932194 7.241521 11.687913 28.920883 -0.843841 -39.290717 28.546641 -8.127089 0.000000 0.000000 0.000000 
0.000239 0.947523 0.005079 5.393990 -21.431600 9.567155 -0.646461 -1.196462 -18.174300 -4.214277 0.678815 0.975908 -3.598880 -2.302207 18.066882 0.000000 0.000000 0.000000 -13.025780 1.340091 -6.653677 5.699067 -0.250233 5.048231 -12.889144 -27.878077 8.307265 0.000000 0.000000 0.000000 3.132433 -0.693492 19.331393 7.465567 -1.947886 -18.104266 6.594976 18.364945 26.421784 2.140641 0.474618 -13.876422 0.000000 0.000000 0.000000 -26.520687 3.522621 -6.157214 -42.060468 -4.763279 -4.720698 -80.917599 -45.360084 41.622234 0.000000 0.000000 0.000000 10.874380 14.746553 7.255826 11.717289 30.955044 -0.778801 -38.909078 29.667959 -8.251706 0.000000 0.000000 0.000000 
-0.001344 0.946720 0.006538 5.326000 -20.853369 9.322257 -0.290391 -1.140180 -17.499196 -4.165035 0.651880 0.279239 -4.835589 -3.895172 18.515045 0.000000 0.000000 0.000000 -12.642860 1.279899 -6.819008 5.525868 -0.236762 5.702002 -13.706873 -29.173935 9.308754 0.000000 0.000000 0.000000 3.422865 -0.772280 19.173781 6.989798 -1.851909 -17.925569 6.879290 18.639231 26.233257 2.698844 0.160179 -14.048957 0.000000 0.000000 0.000000 -25.550787 3.129414 -5.899193 -41.960765 -3.820762 -4.950411 -82.859349 -44.528618 41.807136 0.000000 0.000000 0.000000 11.214428 14.723277 7.375785 12.102628 32.261296 -0.643721 -37.893983 30.722398 -8.271736 0.000000 0.000000 0.000000 
-0.003068 0.945362 0.007588 5.204893 -20.453640 9.110084 -0.153868 -1.119504 -17.076603 -4.029870 0.628497 0.421609 -5.025025 -4.455023 17.423444 0.000000 0.000000 0.000000 -12.449428 1.244507 -7.320275 5.822775 -0.253915 6.833892 -14.585352 -30.518780 10.069329 0.000000 0.000000 0.000000 3.593788 -0.818379 18.923216 6.667157 -1.827668 -17.309019 7.151497 18.935433 26.173601 3.102380 0.058134 -15.110186 0.000000 0.000000 0.000000 -24.477051 2.740864 -5.608001 -42.636481 -3.562679 -5.076927 -85.306624 -44.482392 43.178910 0.000000 0.000000 0.000000 11.157291 15.022221 7.571052 11.937322 32.893670 -0.606937 -36.573393 30.930034 -7.970790 0.000000 0.000000 0.000000 
-0.004532 0.944130 0.007991 4.921255 -20.591807 8.458246 0.321596 -1.021226 -16.258482 -4.196863 0.660324 0.435464 -4.984535 -4.516240 17.097543 0.000000 0.000000 0.000000 -12.200507 1.215807 -7.483241 6.035421 -0.250006 8.054599 -15.000074 -31.100131 10.510810 0.000000 0.000000 0.000000 3.641090 -0.815537 19.361932 6.303595 -1.788509 -16.918857 7.716101 19.279942 26.389471 3.439220 -0.054520 -15.775978 0.000000 0.000000 0.000000 -24.213133 2.475460 -5.473354 -42.349760 -3.782120 -4.964155 -86.588348 -45.632623 45.078144 0.000000 0.000000 0.000000 10.679917 15.269102 7.602787 11.567935 32.786318 -0.628593 -36.716699 31.481486 -8.188985 0.000000 0.000000 0.000000 
-0.005474 0.942833 0.007844 4.736328 -20.137497 8.262629 0.421466 -1.011322 -16.119913 -4.241134 0.673694 0.938524 -4.584068 -4.240278 15.842981 0.000000 0.000000 0.000000 -12.087228 1.186789 -7.647328 6.023155 -0.239346 8.984842 -14.906595 -31.010811 10.536995 0.000000 0.000000 0.000000 3.869366 -0.875386 19.403344 6.271525 -1.794156 -16.750622 7.676463 19.106041 26.423283 3.116969 0.332752 -17.127360 0.000000 0.000000 0.000000 -24.316333 2.153871 -5.330451 -42.489558 -3.633519 -5.010874 -88.613444 -46.482757 47.380521 0.000000 0.000000 0.000000 9.815733 15.029252 7.328138 10.457603 32.222958 -0.794149 -38.611828 32.569615 -9.065025 0.000000 0.000000 0.000000 
-0.005657 0.942618 0.007339 4.392479 -19.724331 8.288777 0.718589 -0.985140 -16.462193 -4.222370 0.672084 1.258516 -4.628931 -4.056912 16.452545 0.000000 0.000000 0.000000 -12.090387 1.173037 -7.782356 6.321788 -0.272938 9.585443 -14.460083 -30.406332 10.520367 0.000000 0.000000 0.000000 4.225746 -0.963914 19.698127 5.760022 -1.652403 -16.786109 7.626786 18.499892 26.339326 3.073761 0.318227 -17.287891 0.000000 0.000000 0.000000 -24.300026 2.133676 -5.193997 -42.765721 -3.789072 -5.020877 -89.416888 -47.538622 49.244542 0.000000 0.000000 0.000000 8.239455 14.534265 6.758499 8.410777 31.181161 -1.087852 -44.362493 34.297388 -11.445716 0.000000 0.000000 0.000000 
